# xmcd
#
# Track frame offsets: 
#        150
#        20813
#        42034
#        56875
#        76133
#        93480
#        116612
#        137886
#        156656
#        173564
#        187666
#        211223
#
# Disc length: 3071 seconds
#
# Revision: 0
# Processed by: cddbd v1.5.2PL0 Copyright (c) Steve Scherf et al.
# Submitted via: ExactAudioCopy v0.95b4
#
DISCID=9e0bfd0c
DTITLE=Halie Loren - Full Circle
DYEAR=2010
DGENRE=Jazz
TTITLE0=Maybe I'll Fly
TTITLE1=Alone
TTITLE2=Sand
TTITLE3=River
TTITLE4=Pretty Truth
TTITLE5=Kitty
TTITLE6=Full Circle
TTITLE7=Empty
TTITLE8=Numb
TTITLE9=Almost Even
TTITLE10=Sisters
TTITLE11=Lucky
EXTD=
EXTT0=
EXTT1=
EXTT2=
EXTT3=
EXTT4=
EXTT5=
EXTT6=
EXTT7=
EXTT8=
EXTT9=
EXTT10=
EXTT11=
PLAYORDER=
